<svg width="262" height="325" viewBox="0 0 262 325" fill="none" xmlns="http://www.w3.org/2000/svg">
<g filter="url(#filter0_d_2084_1285)">
<circle cx="131" cy="190" r="127" fill="#BAC366"/>
</g>
<path d="M152 21C152 32.598 142.598 42 131 42C119.402 42 110 32.598 110 21C110 9.40202 119.402 0 131 0C142.598 0 152 9.40202 152 21Z" fill="#BAC366"/>
<circle cx="131" cy="105" r="21" fill="#1C3548"/>
<g filter="url(#filter1_d_2084_1285)">
<path d="M31.256 215.64C26.3493 215.64 22.616 214.424 20.056 211.992C17.496 209.56 16.5573 206.296 17.24 202.2H26.84C26.584 203.779 26.9893 205.037 28.056 205.976C29.1227 206.872 30.7013 207.32 32.792 207.32C34.7973 207.32 36.44 206.872 37.72 205.976C39 205.08 39.768 203.843 40.024 202.264C40.2373 200.813 40.0027 199.576 39.32 198.552C38.68 197.528 37.6347 196.845 36.184 196.504L31.64 195.416C27.8 194.477 24.9627 192.749 23.128 190.232C21.2933 187.715 20.6533 184.685 21.208 181.144C21.6347 178.413 22.6373 176.045 24.216 174.04C25.7947 171.992 27.8213 170.413 30.296 169.304C32.7707 168.195 35.5867 167.64 38.744 167.64C43.5227 167.64 47.128 168.835 49.56 171.224C51.992 173.571 52.888 176.749 52.248 180.76H42.648C42.8613 179.267 42.52 178.093 41.624 177.24C40.728 176.387 39.2987 175.96 37.336 175.96C35.5013 175.96 34.008 176.387 32.856 177.24C31.7467 178.051 31.0853 179.224 30.872 180.76C30.616 182.211 30.7867 183.448 31.384 184.472C31.9813 185.453 32.9627 186.115 34.328 186.456L39.128 187.608C43.0533 188.547 45.9333 190.253 47.768 192.728C49.6027 195.16 50.2427 198.189 49.688 201.816C49.2187 204.632 48.152 207.085 46.488 209.176C44.824 211.224 42.6907 212.824 40.088 213.976C37.528 215.085 34.584 215.64 31.256 215.64Z" fill="#4D5411"/>
<path d="M54.783 215L62.207 168.28H78.143C81.4283 168.28 84.1803 168.899 86.399 170.136C88.6603 171.373 90.2817 173.101 91.263 175.32C92.287 177.539 92.5643 180.141 92.095 183.128C91.6257 186.072 90.5377 188.675 88.831 190.936C87.1243 193.155 84.9483 194.883 82.303 196.12C79.6577 197.357 76.6923 197.976 73.407 197.976H67.071L64.383 215H54.783ZM68.479 189.336H74.815C76.863 189.336 78.5697 188.781 79.935 187.672C81.343 186.52 82.1963 185.005 82.495 183.128C82.7937 181.251 82.4097 179.757 81.343 178.648C80.319 177.496 78.783 176.92 76.735 176.92H70.399L68.479 189.336Z" fill="#4D5411"/>
<path d="M93.094 215L100.518 168.28H115.558C118.886 168.28 121.659 168.856 123.878 170.008C126.139 171.16 127.761 172.803 128.742 174.936C129.766 177.069 130.043 179.587 129.574 182.488C129.233 184.877 128.443 187.075 127.206 189.08C125.969 191.043 124.411 192.685 122.534 194.008C120.699 195.331 118.651 196.205 116.39 196.632L117.606 191.896L125.094 215H115.174L109.926 197.336H105.446L102.63 215H93.094ZM106.726 189.016H112.23C114.363 189.016 116.091 188.483 117.414 187.416C118.779 186.349 119.611 184.856 119.91 182.936C120.251 180.931 119.91 179.373 118.886 178.264C117.905 177.155 116.347 176.6 114.214 176.6H108.71L106.726 189.016Z" fill="#4D5411"/>
<path d="M146.381 215.64C141.645 215.64 138.104 214.36 135.757 211.8C133.453 209.24 132.642 205.741 133.325 201.304L138.573 168.28H148.173L142.925 201.24C142.626 203.203 142.882 204.717 143.693 205.784C144.546 206.808 145.89 207.32 147.725 207.32C149.517 207.32 151.01 206.808 152.205 205.784C153.4 204.717 154.146 203.203 154.445 201.24L159.693 168.28H169.293L164.045 201.304C163.576 204.248 162.552 206.808 160.973 208.984C159.394 211.117 157.346 212.76 154.829 213.912C152.354 215.064 149.538 215.64 146.381 215.64Z" fill="#4D5411"/>
<path d="M185.012 215.64C181.897 215.64 179.252 215.064 177.076 213.912C174.9 212.717 173.343 211.075 172.404 208.984C171.465 206.851 171.209 204.376 171.636 201.56L174.772 181.72C175.241 178.861 176.287 176.387 177.908 174.296C179.529 172.205 181.599 170.584 184.116 169.432C186.676 168.237 189.513 167.64 192.628 167.64C195.785 167.64 198.431 168.237 200.564 169.432C202.697 170.584 204.255 172.205 205.236 174.296C206.217 176.387 206.473 178.861 206.004 181.72H196.404C196.745 179.843 196.468 178.413 195.572 177.432C194.676 176.451 193.268 175.96 191.348 175.96C189.428 175.96 187.871 176.451 186.676 177.432C185.481 178.413 184.713 179.843 184.372 181.72L181.236 201.56C180.937 203.395 181.236 204.824 182.132 205.848C183.028 206.829 184.436 207.32 186.356 207.32C188.276 207.32 189.833 206.829 191.028 205.848C192.223 204.824 192.969 203.395 193.268 201.56H202.868C202.441 204.376 201.396 206.851 199.732 208.984C198.111 211.075 196.041 212.717 193.524 213.912C191.007 215.064 188.169 215.64 185.012 215.64Z" fill="#4D5411"/>
<path d="M209.179 215L216.603 168.28H245.403L244.059 176.472H224.667L223.003 186.968H240.155L238.875 195.16H221.723L219.867 206.808H239.259L237.979 215H209.179Z" fill="#4D5411"/>
</g>
<defs>
<filter id="filter0_d_2084_1285" x="0" y="63" width="262" height="262" filterUnits="userSpaceOnUse" color-interpolation-filters="sRGB">
<feFlood flood-opacity="0" result="BackgroundImageFix"/>
<feColorMatrix in="SourceAlpha" type="matrix" values="0 0 0 0 0 0 0 0 0 0 0 0 0 0 0 0 0 0 127 0" result="hardAlpha"/>
<feOffset dy="4"/>
<feGaussianBlur stdDeviation="2"/>
<feComposite in2="hardAlpha" operator="out"/>
<feColorMatrix type="matrix" values="0 0 0 0 0 0 0 0 0 0 0 0 0 0 0 0 0 0 0.25 0"/>
<feBlend mode="normal" in2="BackgroundImageFix" result="effect1_dropShadow_2084_1285"/>
<feBlend mode="normal" in="SourceGraphic" in2="effect1_dropShadow_2084_1285" result="shape"/>
</filter>
<filter id="filter1_d_2084_1285" x="13.0244" y="167.64" width="236.379" height="56" filterUnits="userSpaceOnUse" color-interpolation-filters="sRGB">
<feFlood flood-opacity="0" result="BackgroundImageFix"/>
<feColorMatrix in="SourceAlpha" type="matrix" values="0 0 0 0 0 0 0 0 0 0 0 0 0 0 0 0 0 0 127 0" result="hardAlpha"/>
<feOffset dy="4"/>
<feGaussianBlur stdDeviation="2"/>
<feComposite in2="hardAlpha" operator="out"/>
<feColorMatrix type="matrix" values="0 0 0 0 0 0 0 0 0 0 0 0 0 0 0 0 0 0 0.25 0"/>
<feBlend mode="normal" in2="BackgroundImageFix" result="effect1_dropShadow_2084_1285"/>
<feBlend mode="normal" in="SourceGraphic" in2="effect1_dropShadow_2084_1285" result="shape"/>
</filter>
</defs>
</svg>
