<svg width="393" height="852" viewBox="0 0 393 852" fill="none" xmlns="http://www.w3.org/2000/svg">
<rect width="393" height="852" fill="#1C3548"/>
<g filter="url(#filter0_d_1_2)">
<circle cx="197" cy="248" r="127" fill="#BAC366"/>
</g>
<g filter="url(#filter1_d_1_2)">
<path d="M97.256 273.64C92.3493 273.64 88.616 272.424 86.056 269.992C83.496 267.56 82.5573 264.296 83.24 260.2H92.84C92.584 261.779 92.9893 263.037 94.056 263.976C95.1227 264.872 96.7013 265.32 98.792 265.32C100.797 265.32 102.44 264.872 103.72 263.976C105 263.08 105.768 261.843 106.024 260.264C106.237 258.813 106.003 257.576 105.32 256.552C104.68 255.528 103.635 254.845 102.184 254.504L97.64 253.416C93.8 252.477 90.9627 250.749 89.128 248.232C87.2933 245.715 86.6533 242.685 87.208 239.144C87.6347 236.413 88.6373 234.045 90.216 232.04C91.7947 229.992 93.8213 228.413 96.296 227.304C98.7707 226.195 101.587 225.64 104.744 225.64C109.523 225.64 113.128 226.835 115.56 229.224C117.992 231.571 118.888 234.749 118.248 238.76H108.648C108.861 237.267 108.52 236.093 107.624 235.24C106.728 234.387 105.299 233.96 103.336 233.96C101.501 233.96 100.008 234.387 98.856 235.24C97.7467 236.051 97.0853 237.224 96.872 238.76C96.616 240.211 96.7867 241.448 97.384 242.472C97.9813 243.453 98.9627 244.115 100.328 244.456L105.128 245.608C109.053 246.547 111.933 248.253 113.768 250.728C115.603 253.16 116.243 256.189 115.688 259.816C115.219 262.632 114.152 265.085 112.488 267.176C110.824 269.224 108.691 270.824 106.088 271.976C103.528 273.085 100.584 273.64 97.256 273.64ZM120.783 273L128.207 226.28H144.143C147.428 226.28 150.18 226.899 152.399 228.136C154.66 229.373 156.282 231.101 157.263 233.32C158.287 235.539 158.564 238.141 158.095 241.128C157.626 244.072 156.538 246.675 154.831 248.936C153.124 251.155 150.948 252.883 148.303 254.12C145.658 255.357 142.692 255.976 139.407 255.976H133.071L130.383 273H120.783ZM134.479 247.336H140.815C142.863 247.336 144.57 246.781 145.935 245.672C147.343 244.52 148.196 243.005 148.495 241.128C148.794 239.251 148.41 237.757 147.343 236.648C146.319 235.496 144.783 234.92 142.735 234.92H136.399L134.479 247.336ZM159.094 273L166.518 226.28H181.558C184.886 226.28 187.659 226.856 189.878 228.008C192.139 229.16 193.761 230.803 194.742 232.936C195.766 235.069 196.043 237.587 195.574 240.488C195.233 242.877 194.443 245.075 193.206 247.08C191.969 249.043 190.411 250.685 188.534 252.008C186.699 253.331 184.651 254.205 182.39 254.632L183.606 249.896L191.094 273H181.174L175.926 255.336H171.446L168.63 273H159.094ZM172.726 247.016H178.23C180.363 247.016 182.091 246.483 183.414 245.416C184.779 244.349 185.611 242.856 185.91 240.936C186.251 238.931 185.91 237.373 184.886 236.264C183.905 235.155 182.347 234.6 180.214 234.6H174.71L172.726 247.016ZM212.381 273.64C207.645 273.64 204.104 272.36 201.757 269.8C199.453 267.24 198.642 263.741 199.325 259.304L204.573 226.28H214.173L208.925 259.24C208.626 261.203 208.882 262.717 209.693 263.784C210.546 264.808 211.89 265.32 213.725 265.32C215.517 265.32 217.01 264.808 218.205 263.784C219.4 262.717 220.146 261.203 220.445 259.24L225.693 226.28H235.293L230.045 259.304C229.576 262.248 228.552 264.808 226.973 266.984C225.394 269.117 223.346 270.76 220.829 271.912C218.354 273.064 215.538 273.64 212.381 273.64ZM251.012 273.64C247.897 273.64 245.252 273.064 243.076 271.912C240.9 270.717 239.343 269.075 238.404 266.984C237.465 264.851 237.209 262.376 237.636 259.56L240.772 239.72C241.241 236.861 242.287 234.387 243.908 232.296C245.529 230.205 247.599 228.584 250.116 227.432C252.676 226.237 255.513 225.64 258.628 225.64C261.785 225.64 264.431 226.237 266.564 227.432C268.697 228.584 270.255 230.205 271.236 232.296C272.217 234.387 272.473 236.861 272.004 239.72H262.404C262.745 237.843 262.468 236.413 261.572 235.432C260.676 234.451 259.268 233.96 257.348 233.96C255.428 233.96 253.871 234.451 252.676 235.432C251.481 236.413 250.713 237.843 250.372 239.72L247.236 259.56C246.937 261.395 247.236 262.824 248.132 263.848C249.028 264.829 250.436 265.32 252.356 265.32C254.276 265.32 255.833 264.829 257.028 263.848C258.223 262.824 258.969 261.395 259.268 259.56H268.868C268.441 262.376 267.396 264.851 265.732 266.984C264.111 269.075 262.041 270.717 259.524 271.912C257.007 273.064 254.169 273.64 251.012 273.64ZM275.179 273L282.603 226.28H311.403L310.059 234.472H290.667L289.003 244.968H306.155L304.875 253.16H287.723L285.867 264.808H305.259L303.979 273H275.179Z" fill="#4D5411"/>
</g>
<circle cx="197" cy="163" r="21" fill="#1C3548"/>
<circle cx="197" cy="79" r="21" fill="#BAC366"/>
<defs>
<filter id="filter0_d_1_2" x="66" y="121" width="262" height="262" filterUnits="userSpaceOnUse" color-interpolation-filters="sRGB">
<feFlood flood-opacity="0" result="BackgroundImageFix"/>
<feColorMatrix in="SourceAlpha" type="matrix" values="0 0 0 0 0 0 0 0 0 0 0 0 0 0 0 0 0 0 127 0" result="hardAlpha"/>
<feOffset dy="4"/>
<feGaussianBlur stdDeviation="2"/>
<feComposite in2="hardAlpha" operator="out"/>
<feColorMatrix type="matrix" values="0 0 0 0 0 0 0 0 0 0 0 0 0 0 0 0 0 0 0.25 0"/>
<feBlend mode="normal" in2="BackgroundImageFix" result="effect1_dropShadow_1_2"/>
<feBlend mode="normal" in="SourceGraphic" in2="effect1_dropShadow_1_2" result="shape"/>
</filter>
<filter id="filter1_d_1_2" x="78.216" y="225.64" width="237.187" height="56" filterUnits="userSpaceOnUse" color-interpolation-filters="sRGB">
<feFlood flood-opacity="0" result="BackgroundImageFix"/>
<feColorMatrix in="SourceAlpha" type="matrix" values="0 0 0 0 0 0 0 0 0 0 0 0 0 0 0 0 0 0 127 0" result="hardAlpha"/>
<feOffset dy="4"/>
<feGaussianBlur stdDeviation="2"/>
<feComposite in2="hardAlpha" operator="out"/>
<feColorMatrix type="matrix" values="0 0 0 0 0 0 0 0 0 0 0 0 0 0 0 0 0 0 0.25 0"/>
<feBlend mode="normal" in2="BackgroundImageFix" result="effect1_dropShadow_1_2"/>
<feBlend mode="normal" in="SourceGraphic" in2="effect1_dropShadow_1_2" result="shape"/>
</filter>
</defs>
</svg>
